<svg id="a" data-name="Layer 1" xmlns="http://www.w3.org/2000/svg" width="447.1" height="97.92" viewBox="0 0 447.1 97.92">
  <defs>
    <style>
      .b {
        fill: #fff;
      }

      .b, .c, .d {
        stroke-width: 0px;
      }

      .c {
        fill: #0d0c22;
      }

      .d {
        fill: #0d0c23;
        fill-rule: evenodd;
      }
    </style>
  </defs>
  <path class="c" d="M60.56,22.78l-.07-.04-.16-.05c.06.05.14.08.22.09Z"/>
  <path class="c" d="M61.55,29.77l-.08.02.08-.02Z"/>
  <path class="c" d="M60.59,22.77s-.02,0-.03,0c0,0,0,.01,0,.02,0,0,.02,0,.03-.01Z"/>
  <path class="c" d="M60.56,22.78h.01s-.01,0-.01,0Z"/>
  <path class="c" d="M61.49,29.76l.11-.06.04-.02.04-.04c-.07.03-.14.07-.19.13Z"/>
  <path class="c" d="M60.76,22.93l-.11-.11-.07-.04c.04.07.11.12.19.15Z"/>
  <path class="c" d="M32.92,90.81c-.09.04-.17.1-.23.17l.07-.04s.11-.1.16-.13Z"/>
  <path class="c" d="M49.09,87.63c0-.1-.05-.08-.04.27,0-.03.01-.06.02-.09,0-.06.01-.12.02-.19Z"/>
  <path class="c" d="M47.42,90.81c-.09.04-.17.1-.23.17l.07-.04s.11-.1.16-.13Z"/>
  <path class="c" d="M21.53,91.57c-.07-.06-.15-.1-.24-.11.07.03.14.07.19.1l.05.02Z"/>
  <path class="c" d="M18.97,89.12c-.01-.1-.04-.2-.09-.29.04.09.07.19.09.29h0Z"/>
  <path class="b" d="M36.18,45.23c-3.52,1.51-7.51,3.21-12.68,3.21-2.16,0-4.32-.3-6.4-.88l3.58,36.73c.13,1.54.83,2.97,1.96,4.01,1.13,1.04,2.62,1.62,4.16,1.62,0,0,5.07.26,6.77.26,1.82,0,7.28-.26,7.28-.26,1.54,0,3.02-.58,4.16-1.62,1.13-1.04,1.83-2.47,1.96-4.01l3.83-40.59c-1.71-.58-3.44-.97-5.39-.97-3.37,0-6.08,1.16-9.22,2.5Z"/>
  <path class="c" d="M6.02,29.56l.06.06.04.02s-.06-.06-.1-.08Z"/>
  <path class="c" d="M67.34,26.17l-.54-2.72c-.48-2.44-1.58-4.74-4.08-5.62-.8-.28-1.71-.4-2.33-.99-.61-.58-.8-1.49-.94-2.33-.26-1.54-.51-3.09-.78-4.63-.23-1.32-.42-2.81-1.03-4.03-.79-1.63-2.43-2.58-4.06-3.22-.84-.31-1.69-.58-2.55-.79-4.07-1.08-8.36-1.47-12.55-1.7-5.03-.28-10.08-.19-15.1.25-3.74.34-7.67.75-11.22,2.04-1.3.47-2.63,1.04-3.62,2.04-1.21,1.23-1.61,3.14-.72,4.67.63,1.09,1.69,1.86,2.82,2.37,1.47.66,3.01,1.16,4.58,1.49,4.39.97,8.93,1.35,13.41,1.51,4.97.2,9.94.04,14.89-.49,1.22-.13,2.44-.3,3.66-.48,1.43-.22,2.36-2.1,1.93-3.4-.51-1.56-1.87-2.17-3.4-1.93-.23.04-.45.07-.68.1l-.16.02c-.52.07-1.04.13-1.56.18-1.08.12-2.15.21-3.24.28-2.42.17-4.85.25-7.28.25-2.38,0-4.77-.07-7.15-.22-1.09-.07-2.17-.16-3.25-.27-.49-.05-.98-.11-1.47-.17l-.47-.06h-.1s-.48-.08-.48-.08c-.99-.15-1.98-.32-2.95-.53-.1-.02-.19-.08-.25-.16s-.1-.18-.1-.28.03-.2.1-.28.15-.13.25-.16h.02c.85-.18,1.7-.33,2.56-.47.29-.04.57-.09.86-.13h0c.54-.04,1.07-.13,1.61-.19,4.64-.48,9.31-.65,13.98-.49,2.26.07,4.53.2,6.78.43.48.05.97.1,1.45.16.18.02.37.05.56.07l.37.05c1.09.16,2.18.36,3.26.59,1.6.35,3.65.46,4.36,2.21.23.56.33,1.17.45,1.76l.16.74s0,.03,0,.04c.38,1.76.75,3.51,1.13,5.27.03.13.03.26,0,.39-.03.13-.08.25-.15.36-.08.11-.17.2-.29.27-.11.07-.24.11-.37.13h-.01l-.23.03-.23.03c-.72.09-1.44.18-2.17.26-1.43.16-2.85.3-4.28.42-2.84.24-5.69.39-8.54.47-1.45.04-2.91.06-4.36.05-5.78,0-11.56-.34-17.3-1.01-.62-.07-1.24-.15-1.87-.23.48.06-.35-.05-.52-.07-.4-.06-.79-.11-1.19-.17-1.33-.2-2.65-.44-3.97-.66-1.6-.26-3.13-.13-4.58.66-1.19.65-2.15,1.65-2.76,2.86-.62,1.29-.81,2.7-1.09,4.08-.28,1.39-.71,2.88-.55,4.3.35,3.07,2.5,5.57,5.59,6.13,2.91.53,5.83.95,8.76,1.32,11.51,1.41,23.15,1.58,34.7.5.94-.09,1.88-.18,2.82-.29.29-.03.59,0,.87.1.28.1.53.26.74.46.21.21.37.46.47.74.1.28.13.57.1.87l-.29,2.84c-.59,5.74-1.18,11.49-1.77,17.23-.61,6.03-1.23,12.06-1.86,18.09-.18,1.7-.35,3.4-.53,5.1-.17,1.67-.19,3.4-.51,5.05-.5,2.6-2.26,4.19-4.83,4.78-2.35.54-4.75.82-7.16.84-2.67.01-5.34-.1-8.02-.09-2.85.02-6.35-.25-8.55-2.37-1.94-1.86-2.2-4.79-2.47-7.31-.35-3.34-.7-6.69-1.04-10.03l-1.94-18.59-1.25-12.03c-.02-.2-.04-.4-.06-.6-.15-1.43-1.17-2.84-2.77-2.77-1.37.06-2.93,1.23-2.77,2.77l.93,8.92,1.92,18.44c.55,5.24,1.09,10.48,1.64,15.72.11,1,.2,2.01.31,3.01.6,5.49,4.79,8.44,9.98,9.27,3.03.49,6.13.59,9.21.64,3.94.06,7.92.21,11.8-.5,5.74-1.05,10.06-4.89,10.67-10.84.18-1.72.35-3.44.53-5.15.58-5.68,1.17-11.37,1.75-17.05l1.9-18.57.87-8.51c.04-.42.22-.82.51-1.13.29-.31.67-.53,1.08-.61,1.64-.32,3.21-.87,4.38-2.12,1.86-1.99,2.23-4.59,1.57-7.2ZM5.55,28.01s-.02.2-.04.3c0-.15,0-.29.04-.3ZM5.7,29.24s.05.04.09.11c-.06-.06-.1-.1-.09-.11h0ZM5.86,29.45c.06.1.09.16,0,0h0ZM6.18,29.7h0s.01.02.02.03c0-.01-.02-.02-.03-.03h0ZM61.31,29.32c-.59.56-1.48.82-2.36.95-9.85,1.46-19.85,2.2-29.81,1.88-7.13-.24-14.18-1.04-21.24-2.03-.69-.1-1.44-.22-1.92-.73-.9-.96-.46-2.9-.22-4.06.21-1.06.62-2.48,1.89-2.63,1.98-.23,4.27.6,6.23.9,2.35.36,4.72.65,7.09.86,10.12.92,20.41.78,30.48-.57,1.84-.25,3.67-.53,5.49-.86,1.62-.29,3.43-.84,4.41.84.67,1.15.76,2.68.66,3.97-.03.56-.28,1.09-.69,1.48h0Z"/>
  <path class="d" d="M121.08,56.7c-.57,1.1-1.37,2.05-2.37,2.87-1.01.81-2.18,1.47-3.52,1.98-1.34.51-2.69.85-4.05,1.03-1.36.18-2.68.16-3.96-.05-1.28-.21-2.37-.63-3.26-1.27l1.01-10.46c.93-.32,2.09-.64,3.5-.98,1.41-.33,2.85-.57,4.34-.72,1.49-.14,2.89-.13,4.22.05,1.33.18,2.37.6,3.14,1.27.42.38.77.8,1.06,1.24.29.45.46.91.53,1.39.16,1.34-.05,2.56-.62,3.65ZM106.45,34.41c.67-.41,1.48-.78,2.42-1.1.94-.32,1.91-.54,2.9-.67.99-.13,1.96-.14,2.9-.05.94.1,1.77.36,2.49.79.72.43,1.25,1.05,1.61,1.86.35.81.45,1.84.29,3.08-.13.99-.52,1.82-1.17,2.51-.66.69-1.46,1.26-2.4,1.72-.94.46-1.94.83-3,1.1-1.06.27-2.07.47-3.04.6-.98.13-1.82.21-2.54.24-.72.03-1.19.05-1.42.05l.96-10.13ZM126.25,49.94c-.51-1.11-1.2-2.09-2.06-2.94-.86-.84-1.89-1.46-3.07-1.84.51-.41,1.01-1.07,1.51-1.96.49-.89.92-1.86,1.27-2.91.35-1.05.59-2.11.72-3.18.13-1.07.08-1.98-.14-2.75-.54-1.91-1.4-3.41-2.57-4.49-1.17-1.08-2.52-1.83-4.07-2.25-1.55-.41-3.26-.5-5.13-.26-1.87.24-3.78.71-5.73,1.41,0-.16.02-.33.05-.5.03-.17.05-.36.05-.55,0-.48-.24-.89-.72-1.24-.48-.35-1.03-.56-1.65-.62-.62-.06-1.23.07-1.82.41-.59.33-1,.95-1.22,1.84-.26,2.87-.51,5.84-.77,8.93-.26,3.09-.53,6.21-.82,9.36-.29,3.15-.58,6.28-.86,9.39-.29,3.11-.58,6.09-.86,8.96.1.86.33,1.53.72,2.01.38.48.83.76,1.34.86.51.1,1.05,0,1.61-.26.56-.27,1.05-.74,1.46-1.41,1.28.7,2.72,1.15,4.32,1.36,1.6.21,3.22.21,4.87,0,1.65-.21,3.27-.6,4.87-1.17,1.6-.57,3.05-1.29,4.36-2.15,1.31-.86,2.41-1.84,3.31-2.94.89-1.1,1.49-2.29,1.77-3.56.29-1.31.37-2.61.24-3.92-.13-1.31-.45-2.52-.96-3.63Z"/>
  <path class="d" d="M173.03,75.16c-.18,1.05-.42,2.16-.74,3.32-.32,1.16-.7,2.22-1.13,3.18-.43.96-.91,1.73-1.44,2.32-.53.59-1.1.84-1.7.74-.48-.07-.78-.37-.91-.91-.13-.54-.13-1.21,0-2.01.13-.8.37-1.7.74-2.7.37-1,.82-2,1.34-2.99.53-.99,1.13-1.93,1.8-2.84.67-.91,1.37-1.66,2.11-2.27.16.19.23.67.22,1.43-.02.76-.11,1.67-.29,2.72ZM189.28,54.43c-.43-.48-.96-.75-1.58-.81-.62-.06-1.26.29-1.89,1.05-.42.76-.94,1.5-1.58,2.2-.64.7-1.3,1.34-1.99,1.91-.69.57-1.34,1.07-1.97,1.48-.62.41-1.11.72-1.46.91-.13-1.02-.2-2.12-.22-3.3-.02-1.18,0-2.37.07-3.58.1-1.72.29-3.46.6-5.21.3-1.75.74-3.47,1.32-5.16,0-.89-.21-1.62-.62-2.17-.42-.56-.92-.91-1.51-1.05-.59-.14-1.2-.06-1.82.24-.62.3-1.16.85-1.61,1.65-.38,1.05-.82,2.23-1.32,3.54-.5,1.31-1.05,2.64-1.68,3.99-.62,1.35-1.32,2.67-2.09,3.94-.77,1.27-1.61,2.41-2.52,3.39-.91.99-1.9,1.76-2.97,2.32-1.07.56-2.23.8-3.48.74-.58-.16-.99-.59-1.25-1.29-.26-.7-.41-1.58-.46-2.63-.05-1.05,0-2.21.14-3.46.14-1.26.34-2.51.58-3.75.24-1.24.5-2.42.79-3.54.29-1.11.56-2.05.82-2.82.38-.92.38-1.7,0-2.32-.38-.62-.91-1.03-1.58-1.24-.67-.21-1.38-.2-2.11.02-.74.22-1.26.72-1.58,1.48-.54,1.31-1.04,2.77-1.49,4.4-.45,1.62-.81,3.3-1.08,5.04-.27,1.74-.43,3.46-.46,5.16,0,.11,0,.22,0,.33-.7,1.85-1.36,3.25-1.99,4.19-.82,1.21-1.74,1.74-2.76,1.58-.45-.19-.74-.64-.89-1.34-.15-.7-.19-1.56-.15-2.58.05-1.02.17-2.17.36-3.46.19-1.29.43-2.63.72-4.01.29-1.39.59-2.78.91-4.18.32-1.4.61-2.72.86-3.97-.03-1.11-.36-1.97-.98-2.56-.62-.59-1.49-.82-2.61-.69-.77.32-1.34.73-1.7,1.24-.37.51-.66,1.16-.89,1.96-.13.41-.32,1.24-.58,2.48-.26,1.24-.58,2.67-.98,4.28-.4,1.61-.87,3.29-1.41,5.04-.54,1.75-1.15,3.34-1.82,4.75-.67,1.42-1.41,2.56-2.21,3.42-.8.86-1.66,1.21-2.59,1.05-.51-.1-.84-.62-.98-1.58-.14-.96-.17-2.13-.07-3.54.1-1.4.29-2.94.57-4.61.29-1.67.58-3.26.89-4.75.3-1.5.58-2.82.84-3.96.25-1.15.43-1.91.53-2.29,0-.92-.21-1.66-.62-2.22-.42-.56-.92-.91-1.51-1.05-.59-.14-1.2-.06-1.82.24-.62.3-1.16.85-1.61,1.65-.16.86-.37,1.86-.62,2.99-.26,1.13-.5,2.29-.74,3.49-.24,1.19-.46,2.36-.67,3.51-.21,1.15-.36,2.15-.46,3.01-.06.67-.14,1.49-.22,2.46-.08.97-.12,2-.12,3.08s.08,2.16.24,3.22c.16,1.07.45,2.05.86,2.94.41.89,1,1.62,1.75,2.2.75.57,1.7.89,2.85.96,1.18.06,2.21-.02,3.09-.26.88-.24,1.68-.61,2.4-1.12.72-.51,1.37-1.11,1.97-1.82.59-.7,1.17-1.46,1.75-2.29.54,1.21,1.25,2.15,2.11,2.82.86.67,1.77,1.07,2.73,1.19.96.13,1.93,0,2.92-.41.99-.4,1.89-1.07,2.68-2.03.53-.59,1.02-1.25,1.49-1.99.2.34.41.68.65.98.78,1.02,1.85,1.72,3.19,2.1,1.44.38,2.84.45,4.22.19,1.37-.25,2.68-.72,3.93-1.39,1.25-.67,2.4-1.47,3.48-2.41,1.07-.94,2-1.92,2.8-2.94-.03.73-.05,1.43-.05,2.08s-.02,1.36-.05,2.13c-1.6,1.12-3.11,2.45-4.53,4.01-1.42,1.56-2.67,3.22-3.74,4.99-1.07,1.77-1.91,3.56-2.52,5.37-.61,1.82-.9,3.51-.89,5.09.02,1.58.39,2.95,1.13,4.13.73,1.18,1.93,2.02,3.6,2.53,1.73.54,3.24.56,4.56.05,1.31-.51,2.45-1.35,3.43-2.53.97-1.18,1.77-2.6,2.4-4.28.62-1.67,1.12-3.42,1.49-5.23.37-1.82.6-3.6.69-5.35.1-1.75.1-3.31,0-4.68,2.75-1.15,5-2.6,6.76-4.35,1.76-1.75,3.21-3.6,4.36-5.54.35-.48.47-1.05.36-1.72-.11-.67-.38-1.24-.82-1.72Z"/>
  <path class="d" d="M249.76,51.37c.1-.73.24-1.5.43-2.32.19-.81.43-1.6.72-2.36.29-.76.62-1.42,1.01-1.98.38-.56.79-.96,1.22-1.19.43-.24.87-.21,1.32.07.48.29.77.89.89,1.82.11.92,0,1.91-.34,2.96-.34,1.05-.93,2.04-1.8,2.96-.86.92-2.03,1.53-3.5,1.82-.06-.44-.05-1.03.05-1.77ZM266.38,53.33c-.53-.16-1.03-.17-1.51-.05-.48.13-.78.46-.91,1-.26,1.02-.66,2.06-1.22,3.13-.56,1.07-1.25,2.08-2.06,3.03-.82.96-1.73,1.8-2.76,2.53-1.02.73-2.09,1.26-3.21,1.58-1.12.35-2.05.39-2.78.12-.74-.27-1.32-.73-1.75-1.38-.43-.65-.74-1.44-.93-2.36-.19-.92-.3-1.88-.34-2.87,1.82.13,3.44-.2,4.87-.98,1.42-.78,2.63-1.82,3.62-3.1.99-1.29,1.74-2.74,2.25-4.35.51-1.61.8-3.21.86-4.8.03-1.5-.19-2.76-.67-3.8-.48-1.03-1.13-1.84-1.94-2.41-.81-.57-1.75-.91-2.8-1-1.05-.1-2.13.05-3.21.43-1.31.45-2.42,1.17-3.33,2.17-.91,1-1.67,2.17-2.28,3.49-.61,1.32-1.09,2.75-1.44,4.28-.35,1.53-.61,3.03-.77,4.52-.14,1.33-.22,2.6-.25,3.83-.07.16-.14.31-.21.47-.5,1.13-1.07,2.24-1.73,3.32-.65,1.08-1.38,1.99-2.18,2.72-.8.73-1.63.99-2.49.76-.51-.13-.79-.72-.84-1.77-.05-1.05,0-2.36.17-3.92.16-1.56.34-3.25.55-5.06.21-1.82.31-3.55.31-5.21,0-1.43-.27-2.81-.82-4.13-.54-1.32-1.29-2.42-2.23-3.3-.94-.88-2.04-1.46-3.28-1.74-1.25-.29-2.59-.1-4.03.57-1.44.67-2.58,1.61-3.43,2.82-.85,1.21-1.62,2.48-2.33,3.82-.26-1.02-.63-1.97-1.13-2.84-.5-.88-1.1-1.64-1.82-2.29-.72-.65-1.53-1.16-2.42-1.53-.9-.37-1.84-.55-2.83-.55s-1.85.18-2.66.55c-.81.37-1.56.84-2.23,1.41-.67.57-1.28,1.22-1.82,1.94-.54.72-1.02,1.43-1.44,2.13-.07-.83-.14-1.55-.21-2.17-.08-.62-.23-1.15-.43-1.58-.21-.43-.5-.76-.89-.98-.38-.22-.93-.33-1.63-.33-.35,0-.7.07-1.05.21-.35.14-.66.34-.93.6-.27.26-.48.57-.62.93-.14.37-.18.79-.12,1.27.03.35.12.77.26,1.27.14.49.28,1.14.41,1.93.13.8.23,1.76.31,2.89.08,1.13.1,2.52.07,4.16-.03,1.64-.15,3.56-.36,5.76-.21,2.2-.54,4.75-.98,7.64-.06.67.19,1.21.77,1.62.57.41,1.23.65,1.96.72.74.06,1.43-.06,2.09-.38.65-.32,1.03-.88,1.13-1.67.1-1.5.28-3.09.55-4.78.27-1.69.61-3.36,1.01-5.02.4-1.66.85-3.23,1.37-4.73.51-1.5,1.08-2.82,1.7-3.96.62-1.15,1.27-2.06,1.94-2.75.67-.68,1.37-1.03,2.11-1.03.89,0,1.59.41,2.09,1.22.49.81.85,1.86,1.05,3.13.21,1.27.3,2.67.29,4.18-.02,1.51-.08,2.97-.19,4.37-.11,1.4-.24,2.65-.38,3.75-.14,1.1-.25,1.86-.31,2.27,0,.73.28,1.31.84,1.74.56.43,1.18.68,1.87.76.69.08,1.33-.05,1.94-.38.61-.33.96-.9,1.05-1.7.32-2.29.76-4.59,1.32-6.9.56-2.31,1.2-4.38,1.92-6.21.72-1.83,1.52-3.33,2.4-4.49.88-1.16,1.81-1.74,2.81-1.74.51,0,.9.35,1.17,1.05.27.7.41,1.66.41,2.87,0,.89-.07,1.81-.22,2.75-.14.94-.31,1.91-.5,2.91-.19,1-.36,2.03-.5,3.08-.14,1.05-.21,2.15-.21,3.3,0,.8.08,1.72.24,2.77.16,1.05.46,2.05.91,2.99.45.94,1.06,1.74,1.85,2.39.78.65,1.78.98,2.99.98,1.82,0,3.44-.39,4.84-1.17,1.41-.78,2.61-1.8,3.62-3.06.05-.07.1-.14.15-.2.08.19.14.38.23.56.69,1.4,1.62,2.48,2.8,3.25,1.18.76,2.57,1.19,4.17,1.27,1.6.08,3.34-.22,5.23-.88,1.4-.51,2.63-1.15,3.67-1.91,1.04-.76,1.97-1.7,2.8-2.79.83-1.1,1.59-2.36,2.28-3.8.69-1.43,1.38-3.07,2.08-4.92.13-.51,0-.96-.36-1.36-.37-.4-.81-.68-1.34-.84Z"/>
  <path class="d" d="M292.43,48c-.16.94-.38,1.98-.65,3.11-.27,1.13-.61,2.3-1.03,3.51-.42,1.21-.93,2.3-1.53,3.27-.61.97-1.3,1.74-2.08,2.32-.78.57-1.69.81-2.71.72-.51-.06-.9-.41-1.17-1.05-.27-.64-.42-1.45-.43-2.44-.02-.99.07-2.07.26-3.25.19-1.18.49-2.33.89-3.46.4-1.13.89-2.17,1.46-3.13.58-.96,1.24-1.7,1.99-2.22.75-.53,1.58-.77,2.47-.74.9.03,1.85.48,2.88,1.34-.07.41-.18,1.09-.34,2.03ZM309.48,51.66c-.5-.25-1.01-.31-1.53-.17-.53.14-.9.63-1.13,1.46-.13.89-.42,1.94-.86,3.15-.45,1.21-1,2.36-1.65,3.44-.66,1.08-1.41,1.98-2.25,2.7-.85.72-1.75,1.04-2.71.98-.8-.06-1.36-.47-1.68-1.22-.32-.75-.49-1.69-.5-2.82-.02-1.13.1-2.4.33-3.82.24-1.42.53-2.83.86-4.23.34-1.4.68-2.75,1.03-4.04.35-1.29.64-2.38.86-3.27.25-.8.17-1.47-.24-2.03-.42-.56-.93-.96-1.56-1.19-.62-.24-1.26-.3-1.9-.19-.64.11-1.05.45-1.25,1.03-1.89-1.62-3.7-2.5-5.44-2.63-1.74-.13-3.35.26-4.82,1.15-1.47.89-2.77,2.18-3.91,3.87-1.14,1.69-2.05,3.53-2.76,5.52-.7,1.99-1.14,4.02-1.32,6.09-.18,2.07-.04,3.96.41,5.66s1.24,3.1,2.37,4.18c1.13,1.08,2.68,1.62,4.63,1.62.86,0,1.69-.18,2.49-.53.8-.35,1.53-.76,2.2-1.24s1.26-.98,1.77-1.5c.51-.53.91-.96,1.2-1.31.22,1.15.59,2.12,1.1,2.91.51.8,1.09,1.45,1.75,1.96.65.51,1.34.88,2.06,1.12.72.24,1.42.36,2.09.36,1.5,0,2.91-.51,4.22-1.53,1.31-1.02,2.48-2.27,3.52-3.75,1.04-1.48,1.89-3.04,2.56-4.68.67-1.64,1.12-3.1,1.34-4.37.22-.48.18-.98-.12-1.5-.3-.53-.7-.92-1.2-1.17Z"/>
  <path class="d" d="M395.78,78.03c-.27,1.08-.7,2-1.27,2.75-.58.75-1.29,1.14-2.16,1.17-.54.03-.96-.26-1.25-.86-.29-.61-.49-1.39-.6-2.34-.11-.96-.16-2.02-.14-3.2.02-1.18.06-2.34.14-3.49.08-1.15.18-2.21.29-3.2.11-.99.2-1.75.26-2.29,1.09.13,1.99.6,2.71,1.41.72.81,1.27,1.78,1.65,2.89.38,1.11.61,2.32.67,3.61.06,1.29-.04,2.48-.31,3.56ZM378.42,78.03c-.27,1.08-.69,2-1.27,2.75s-1.3,1.14-2.16,1.17c-.54.03-.96-.26-1.25-.86-.29-.61-.49-1.39-.6-2.34-.11-.96-.16-2.02-.14-3.2.02-1.18.06-2.34.14-3.49.08-1.15.17-2.21.29-3.2.11-.99.2-1.75.26-2.29,1.09.13,1.99.6,2.71,1.41.72.81,1.27,1.78,1.65,2.89.38,1.11.61,2.32.67,3.61.06,1.29-.04,2.48-.31,3.56ZM360.61,50.9c-.03.76-.1,1.44-.22,2.03-.11.59-.26.96-.46,1.12-.35-.19-.78-.68-1.29-1.48-.51-.8-.91-1.7-1.2-2.7-.29-1-.38-1.99-.26-2.96.11-.97.61-1.73,1.51-2.27.35-.19.65-.12.91.22.26.33.46.82.62,1.46.16.64.27,1.37.34,2.2.06.83.08,1.62.05,2.39ZM356.37,60.43c-.5.52-1.05.98-1.65,1.36-.61.38-1.23.67-1.87.86-.64.19-1.21.24-1.73.14-1.44-.29-2.54-.91-3.31-1.86-.77-.96-1.25-2.08-1.46-3.37-.21-1.29-.19-2.67.07-4.13.26-1.46.69-2.83,1.29-4.08.61-1.26,1.34-2.34,2.2-3.25.86-.91,1.81-1.47,2.83-1.7-.38,1.62-.51,3.3-.38,5.04.13,1.74.54,3.37,1.25,4.9.45.92.98,1.77,1.61,2.53.62.76,1.38,1.42,2.28,1.96-.26.54-.63,1.08-1.13,1.6ZM409.42,51.38c.1-.73.24-1.51.43-2.32.19-.81.43-1.6.72-2.36.29-.76.62-1.43,1.01-1.98.38-.56.79-.96,1.22-1.19s.87-.22,1.32.07c.48.29.78.89.89,1.82.11.92,0,1.91-.34,2.96-.34,1.05-.93,2.04-1.8,2.96-.86.92-2.03,1.53-3.5,1.82-.06-.45-.05-1.03.05-1.77ZM428.74,51.38c.1-.73.24-1.51.43-2.32.19-.81.43-1.6.72-2.36.29-.76.62-1.43,1.01-1.98.38-.56.79-.96,1.22-1.19.43-.24.87-.22,1.32.07.48.29.77.89.89,1.82.11.92,0,1.91-.33,2.96-.34,1.05-.93,2.04-1.8,2.96-.86.92-2.03,1.53-3.5,1.82-.06-.45-.05-1.03.05-1.77ZM446.7,54.17c-.37-.4-.82-.68-1.34-.84-.53-.16-1.03-.17-1.51-.05-.48.13-.78.46-.91,1-.26,1.02-.66,2.06-1.22,3.13-.56,1.07-1.25,2.08-2.06,3.03s-1.73,1.8-2.76,2.53c-1.02.73-2.09,1.26-3.21,1.58-1.12.35-2.05.39-2.78.12-.73-.27-1.32-.73-1.75-1.38-.43-.65-.74-1.44-.93-2.37-.19-.92-.3-1.88-.33-2.87,1.82.13,3.44-.2,4.87-.98,1.42-.78,2.63-1.82,3.62-3.11.99-1.29,1.74-2.74,2.25-4.35.51-1.61.8-3.21.86-4.8.03-1.5-.19-2.76-.67-3.8-.48-1.03-1.13-1.84-1.94-2.41-.82-.57-1.75-.91-2.81-1-1.05-.1-2.12.05-3.21.43-1.31.45-2.42,1.17-3.33,2.17-.91,1-1.67,2.17-2.28,3.49-.61,1.32-1.09,2.75-1.44,4.28-.35,1.53-.61,3.03-.77,4.51-.16,1.44-.24,2.81-.26,4.13-.12.26-.25.53-.39.79-.56,1.07-1.25,2.08-2.06,3.03-.81.96-1.73,1.8-2.76,2.53-1.02.73-2.09,1.26-3.21,1.58-1.12.35-2.05.39-2.78.12-.74-.27-1.32-.73-1.75-1.38-.43-.65-.74-1.44-.93-2.37-.19-.92-.3-1.88-.34-2.87,1.82.13,3.44-.2,4.87-.98,1.42-.78,2.63-1.82,3.62-3.11.99-1.29,1.74-2.74,2.25-4.35.51-1.61.8-3.21.86-4.8.03-1.5-.19-2.76-.67-3.8-.48-1.03-1.13-1.84-1.94-2.41-.82-.57-1.75-.91-2.8-1-1.06-.1-2.13.05-3.21.43-1.31.45-2.42,1.17-3.33,2.17-.91,1-1.67,2.17-2.28,3.49-.61,1.32-1.09,2.75-1.44,4.28-.35,1.53-.61,3.03-.77,4.51-.09.84-.15,1.64-.2,2.44-.31.26-.61.53-.93.78-1.1.89-2.26,1.7-3.48,2.41-1.21.72-2.48,1.31-3.79,1.77-1.31.46-2.65.74-4.03.84l2.97-31.72c.19-.67.1-1.26-.29-1.77-.38-.51-.88-.86-1.49-1.05-.61-.19-1.26-.18-1.94.05-.69.22-1.25.73-1.7,1.53-.22,1.21-.46,2.87-.7,4.97-.24,2.1-.48,4.4-.72,6.88-.24,2.48-.48,5.05-.72,7.69-.24,2.64-.45,5.11-.62,7.4,0,.1-.01.19-.02.29-.28.24-.55.47-.84.71-1.1.89-2.26,1.7-3.48,2.41-1.21.72-2.48,1.31-3.79,1.77-1.31.46-2.65.74-4.03.84l2.97-31.72c.19-.67.1-1.26-.29-1.77-.38-.51-.88-.86-1.49-1.05-.61-.19-1.26-.18-1.94.05-.69.22-1.25.73-1.7,1.53-.22,1.21-.46,2.87-.69,4.97-.24,2.1-.48,4.4-.72,6.88-.24,2.48-.48,5.05-.72,7.69-.24,2.64-.45,5.11-.62,7.4,0,.05,0,.09-.01.13-.5.23-1.05.44-1.64.61-.61.18-1.29.28-2.06.31.13-.57.23-1.21.31-1.91.08-.7.14-1.43.19-2.2.05-.76.06-1.53.05-2.29-.02-.76-.06-1.46-.12-2.1-.16-1.37-.46-2.67-.89-3.89-.43-1.23-1.02-2.25-1.75-3.08-.74-.83-1.65-1.39-2.76-1.67-1.1-.29-2.39-.19-3.86.29-2.18-.29-4.13-.09-5.87.6-1.74.69-3.25,1.68-4.53,2.99-1.28,1.31-2.33,2.84-3.14,4.61-.82,1.77-1.36,3.58-1.63,5.45-.11.79-.17,1.58-.19,2.36-.49,1.01-1.04,1.89-1.63,2.63-.85,1.05-1.73,1.91-2.64,2.58-.91.67-1.81,1.18-2.71,1.53-.9.35-1.7.59-2.4.72-.83.16-1.63.18-2.4.05-.77-.13-1.47-.49-2.11-1.1-.51-.45-.9-1.16-1.18-2.15-.27-.99-.43-2.11-.48-3.37-.05-1.26,0-2.57.14-3.94.14-1.37.39-2.67.74-3.89.35-1.23.8-2.32,1.34-3.3.54-.97,1.18-1.66,1.92-2.08.41.06.67.31.77.74.1.43.12.94.07,1.53-.05.59-.12,1.19-.21,1.82-.1.62-.14,1.14-.14,1.55.16.86.47,1.53.93,2.01.46.48.98.76,1.56.84.57.08,1.14-.06,1.7-.41.56-.35,1.01-.91,1.37-1.67.03.03.08.05.14.05l.67-6.07c.19-.83.06-1.56-.38-2.2-.45-.64-1.04-1-1.77-1.1-.93-1.34-2.18-2.05-3.76-2.13-1.58-.08-3.2.44-4.87,1.55-1.02.73-1.93,1.74-2.71,3.03-.78,1.29-1.42,2.72-1.92,4.3-.5,1.58-.85,3.24-1.05,4.99-.21,1.75-.25,3.46-.12,5.11.13,1.66.42,3.22.89,4.68.46,1.47,1.11,2.69,1.94,3.68.7.86,1.5,1.49,2.4,1.89.9.4,1.83.64,2.8.74.98.1,1.94.06,2.9-.12.96-.17,1.87-.42,2.73-.74,1.12-.41,2.27-.94,3.45-1.58,1.18-.64,2.32-1.4,3.4-2.29.57-.47,1.12-.98,1.65-1.53.24.6.51,1.18.84,1.72.86,1.43,2.03,2.6,3.5,3.49,1.47.89,3.28,1.32,5.42,1.29,2.3-.03,4.43-.61,6.38-1.74,1.95-1.13,3.55-2.8,4.8-4.99,1.87,0,3.7-.31,5.51-.92-.01.19-.03.4-.04.58-.13,1.69-.19,2.83-.19,3.44-.03,1.05-.1,2.35-.21,3.89-.11,1.54-.18,3.17-.22,4.87-.03,1.7.03,3.42.19,5.16.16,1.74.49,3.31,1.01,4.73.51,1.42,1.24,2.62,2.18,3.61.94.99,2.18,1.58,3.72,1.77,1.63.22,3.04-.06,4.22-.86,1.18-.8,2.14-1.89,2.88-3.27.73-1.39,1.25-2.99,1.56-4.8.3-1.82.39-3.64.26-5.47-.13-1.83-.46-3.56-1.01-5.18-.54-1.62-1.3-2.96-2.25-4.01.58-.16,1.26-.46,2.06-.91.8-.45,1.62-.95,2.47-1.5.21-.14.41-.28.62-.42-.08,1.13-.12,1.93-.12,2.4-.03,1.05-.1,2.35-.22,3.89-.11,1.54-.18,3.17-.21,4.87-.03,1.7.03,3.42.19,5.16.16,1.74.49,3.31,1.01,4.73.51,1.42,1.24,2.62,2.18,3.61.94.99,2.18,1.58,3.72,1.77,1.63.22,3.03-.06,4.22-.86,1.18-.8,2.14-1.89,2.88-3.27.74-1.39,1.25-2.99,1.56-4.8.3-1.82.39-3.64.26-5.47-.13-1.83-.46-3.56-1.01-5.18-.54-1.62-1.29-2.96-2.26-4.01.58-.16,1.26-.46,2.06-.91.8-.45,1.62-.95,2.47-1.5.44-.29.88-.59,1.31-.9.16,1.56.52,2.92,1.08,4.07.69,1.4,1.62,2.48,2.8,3.25,1.18.76,2.57,1.19,4.17,1.27,1.6.08,3.34-.22,5.23-.88,1.41-.51,2.63-1.15,3.67-1.91,1.04-.76,1.97-1.7,2.8-2.79.05-.06.09-.13.14-.2.15.45.31.87.51,1.27.69,1.4,1.62,2.48,2.81,3.25,1.18.76,2.57,1.19,4.17,1.27,1.6.08,3.34-.22,5.23-.88,1.41-.51,2.63-1.15,3.67-1.91,1.04-.76,1.97-1.7,2.81-2.79.83-1.1,1.59-2.37,2.28-3.8.69-1.43,1.38-3.07,2.09-4.92.13-.51,0-.96-.36-1.36Z"/>
</svg>