<svg id="Square" xmlns="http://www.w3.org/2000/svg" viewBox="0 0 1024 1024"><defs><style>.cls-1{fill:#333;}.cls-2{fill:#fff;}.cls-3{fill:none;stroke:#c1df11;stroke-miterlimit:10;stroke-width:10px;}</style></defs><g id="Background"><rect class="cls-1" width="1024" height="1024" rx="120"/></g><g id="Text"><path class="cls-2" d="M426.5,689.27q-12.28-11.64-12.29-31.87,0-2.56.51-8.19l10-80.9q2.81-23.55,18.68-37.5t39.68-14q21.76,0,34.44,11.78t12.67,31.74q0,2.31-.51,7.94l-10,80.9q-2.82,23.55-18.94,37.63t-40.19,14.08Q438.79,700.92,426.5,689.27Zm62.72-13.7Q500,666.11,502,650.23l10.24-82.69a41.56,41.56,0,0,0,.25-5.37q0-13.57-8.44-21.38T481,533q-15.63,0-26.24,9.47t-12.42,25.09l-10.24,82.69a41.45,41.45,0,0,0-.26,5.38q0,13.56,8.2,21.5t22.52,7.94Q478.46,685.05,489.22,675.57Z"/><path class="cls-2" d="M594.17,519.16h13.32c1.53,0,2.3.85,2.3,2.56L588.29,695.8c-.35,1.71-1.28,2.56-2.82,2.56H572.93c-1.54,0-2.31-.85-2.31-2.56l19.2-155.91c0-.85-.34-1.1-1-.76l-27.91,11-1,.26c-1,0-1.54-.68-1.54-2l-.25-9.73c0-1.19.77-2.21,2.3-3.07l30.47-15.61A7.21,7.21,0,0,1,594.17,519.16Z"/><path class="cls-2" d="M509.23,327.69l-1.54,11a2.42,2.42,0,0,1-.77,1.79,2.76,2.76,0,0,1-2,.77H456.24a.9.9,0,0,0-1,1L435.5,501.77a2.46,2.46,0,0,1-.77,1.79,2.77,2.77,0,0,1-2.05.77H420.14c-1.54,0-2.3-.85-2.3-2.56l19.71-159.49c0-.68-.26-1-.77-1H389.93c-1.71,0-2.39-.85-2.05-2.56l1.28-11c.34-1.7,1.28-2.56,2.82-2.56H506.92C508.46,325.13,509.23,326,509.23,327.69Z"/><path class="cls-2" d="M523.82,493.19Q509.73,480,509.74,458.25c0-1.7.17-4.44.51-8.19L519,379.4A64.14,64.14,0,0,1,530,350a61.14,61.14,0,0,1,23-19.84,68.92,68.92,0,0,1,31.24-7q23.81,0,37.88,12.93t14.08,33.92q0,2.31-.51,7.42l-.25,3.33c-.35,1.71-1.28,2.56-2.82,2.56h-12.8c-1.71,0-2.39-.85-2.05-2.56l.26-3.07a48.25,48.25,0,0,0,.25-5.63q0-14.85-9.6-23.94T582.44,339q-18.18,0-30.84,11t-15,28.93l-8.7,71.68a45.87,45.87,0,0,0-.26,5.63q0,15.62,10,25t26.88,9.35q18.18,0,30.21-10.24t14.08-27.4l2.82-23.29a.46.46,0,0,0,0-.64.86.86,0,0,0-.77-.39H574.25a2,2,0,0,1-1.66-.76,1.93,1.93,0,0,1-.39-1.8l1.28-10.75c.34-1.7,1.28-2.56,2.82-2.56H629a2.07,2.07,0,0,1,1.66.77,1.94,1.94,0,0,1,.38,1.79l-4.09,33q-3.33,27.39-21,42.75t-44.29,15.36Q537.91,506.38,523.82,493.19Z"/></g><rect id="Trace_square" data-name="Trace square" class="cls-3" x="271.36" y="271.36" width="481.28" height="481.28" rx="40"/><g id="Top_right" data-name="Top right"><polyline class="cls-3" points="637.95 271.36 688.13 221.18 688.13 131.07 647.17 90.11"/><polyline class="cls-3" points="695.55 271.1 729.09 237.57 729.09 90.11"/><polyline class="cls-3" points="740.61 283.39 811.01 212.99 950.27 212.99"/><polyline class="cls-3" points="752.64 328.7 786.43 294.91 827.39 253.95 827.39 442.37 925.7 442.37"/><polyline class="cls-3" points="752.64 386.05 786.43 352.26 786.43 458.75 843.78 516.1"/><circle class="cls-3" cx="729.09" cy="69.63" r="20.48"/><circle class="cls-3" cx="860.16" cy="532.48" r="20.48"/><circle class="cls-3" cx="630.78" cy="73.73" r="20.48"/><circle class="cls-3" cx="946.18" cy="442.37" r="20.48"/><circle class="cls-3" cx="970.75" cy="212.99" r="20.48"/></g><g id="Bottom_Right" data-name="Bottom Right"><polyline class="cls-3" points="507.9 752.64 507.9 802.82 409.6 901.12"/><polyline class="cls-3" points="548.86 752.64 548.86 819.2 491.52 876.54 491.52 942.08"/><polyline class="cls-3" points="589.82 752.64 589.82 835.58 655.36 901.12 729.09 901.12 770.05 942.08"/><polyline class="cls-3" points="630.78 752.64 630.78 819.2 671.74 860.16 802.82 860.16 892.93 770.05"/><circle class="cls-3" cx="786.43" cy="958.46" r="20.48"/><circle class="cls-3" cx="393.22" cy="917.5" r="20.48"/><circle class="cls-3" cx="909.31" cy="753.66" r="20.48"/><circle class="cls-3" cx="491.52" cy="962.56" r="20.48"/></g><g id="Top_Left" data-name="Top Left"><polyline class="cls-3" points="271.36 459.78 204.8 393.22 131.07 393.22 81.92 344.06 81.92 253.95"/><polyline class="cls-3" points="271.36 402.43 172.03 303.1 172.03 196.61 114.69 139.26"/><polyline class="cls-3" points="271.36 345.09 212.99 286.72 212.99 196.61 262.14 147.46 262.14 81.92"/><polyline class="cls-3" points="286.72 280.41 286.72 204.8 319.49 172.03 442.37 172.03 475.14 139.26"/><circle class="cls-3" cx="81.92" cy="233.47" r="20.48"/><circle class="cls-3" cx="262.14" cy="61.44" r="20.48"/><circle class="cls-3" cx="491.52" cy="122.88" r="20.48"/><circle class="cls-3" cx="98.3" cy="122.88" r="20.48"/></g><g id="Bottom_Left" data-name="Bottom Left"><polyline class="cls-3" points="283.39 740.61 253.95 770.05 147.46 770.05 90.11 712.7"/><polyline class="cls-3" points="328.7 752.64 270.34 811.01 212.99 811.01 106.5 917.5"/><polyline class="cls-3" points="271.36 695.3 237.57 729.09 188.42 729.09 155.65 696.32 155.65 606.21"/><circle class="cls-3" cx="90.11" cy="933.89" r="20.48"/><circle class="cls-3" cx="73.73" cy="696.32" r="20.48"/><circle class="cls-3" cx="155.65" cy="585.73" r="20.48"/></g></svg>