<?xml version="1.0" encoding="UTF-8"?>
<svg id="Square" xmlns="http://www.w3.org/2000/svg" viewBox="0 0 1024 1024">
  <defs>
    <style>
      .cls-1 {
        fill: none;
        stroke: #c1df11;
        stroke-miterlimit: 10;
        stroke-width: 10px;
      }

      .cls-2 {
        fill: #fff;
      }

      .cls-3 {
        fill: #333;
      }
    </style>
  </defs>
  <g id="Background">
    <rect class="cls-3" x="0" y="0" width="1024" height="1024" rx="120" ry="120"/>
  </g>
  <g id="Text">
    <g id="TG">
      <path class="cls-2" d="M391.25,346.24l4-17h111.75l-4,17h-46.5l-36,156h-19l36-156h-46.25Z"/>
      <path class="cls-2" d="M546.25,504.74c-34.84,0-52.25-16.33-52.25-49s7.08-62,21.25-87.5c7-12.5,16.38-22.54,28.12-30.12,11.75-7.58,24.96-11.38,39.62-11.38s28.41,2,42.75,6l7,1.75-4.75,14.5c-16.67-3.5-32.5-5.25-47.5-5.25-9,0-17.25,2.38-24.75,7.12s-13.75,11-18.75,18.75-9.25,16.62-12.75,26.62c-6.84,18.67-10.25,38.59-10.25,59.75s11.41,31.75,34.25,31.75c7.33,0,15.91-1,25.75-3l4.5-.75,13-55h-26.25l3.75-16.5h45.5l-20,85.5c-14.67,4.5-30.75,6.75-48.25,6.75Z"/>
    </g>
    <g id="_01" data-name="01">
      <path class="cls-2" d="M477.13,527.01c33.33,0,50,16.34,50,49,0,21.17-3.04,40.88-9.12,59.12-6.09,18.25-15.12,33.17-27.12,44.75-12,11.59-25.96,17.38-41.88,17.38s-28.04-4.08-36.38-12.25c-8.34-8.16-12.5-20.08-12.5-35.75,0-20.5,2.91-39.91,8.75-58.25,5.83-18.33,14.75-33.58,26.75-45.75,12-12.16,25.83-18.25,41.5-18.25ZM476.88,543.76c-9.17,0-17.54,3.42-25.12,10.25-7.59,6.84-13.62,15.59-18.12,26.25-9.34,21.84-14,44-14,66.5s10,33.75,30,33.75c12,0,22.54-5.58,31.62-16.75,9.08-11.16,15.75-24.38,20-39.62s6.38-30.62,6.38-46.12c0-22.83-10.25-34.25-30.75-34.25Z"/>
      <path class="cls-2" d="M547.37,563.26l60-33.75h16.5l-37.75,165.25h-19l32.5-142-47.25,26-5-15.5Z"/>
    </g>
  </g>
  <rect id="Trace_square" data-name="Trace square" class="cls-1" x="271.36" y="271.36" width="481.28" height="481.28" rx="40" ry="40"/>
  <g id="Top_right" data-name="Top right">
    <polyline class="cls-1" points="637.95 271.36 688.13 221.18 688.13 131.07 647.17 90.11"/>
    <polyline class="cls-1" points="695.55 271.1 729.09 237.57 729.09 90.11"/>
    <polyline class="cls-1" points="740.61 283.39 811.01 212.99 950.27 212.99"/>
    <polyline class="cls-1" points="752.64 328.7 786.43 294.91 827.39 253.95 827.39 442.37 925.7 442.37"/>
    <polyline class="cls-1" points="752.64 386.05 786.43 352.26 786.43 458.75 843.78 516.1"/>
    <circle class="cls-1" cx="729.09" cy="69.63" r="20.48"/>
    <circle class="cls-1" cx="860.16" cy="532.48" r="20.48"/>
    <circle class="cls-1" cx="630.78" cy="73.73" r="20.48"/>
    <circle class="cls-1" cx="946.18" cy="442.37" r="20.48"/>
    <circle class="cls-1" cx="970.75" cy="212.99" r="20.48"/>
  </g>
  <g id="Bottom_Right" data-name="Bottom Right">
    <polyline class="cls-1" points="507.9 752.64 507.9 802.82 409.6 901.12"/>
    <polyline class="cls-1" points="548.86 752.64 548.86 819.2 491.52 876.54 491.52 942.08"/>
    <polyline class="cls-1" points="589.82 752.64 589.82 835.58 655.36 901.12 729.09 901.12 770.05 942.08"/>
    <polyline class="cls-1" points="630.78 752.64 630.78 819.2 671.74 860.16 802.82 860.16 892.93 770.05"/>
    <circle class="cls-1" cx="786.43" cy="958.46" r="20.48"/>
    <circle class="cls-1" cx="393.22" cy="917.5" r="20.48"/>
    <circle class="cls-1" cx="909.31" cy="753.66" r="20.48"/>
    <circle class="cls-1" cx="491.52" cy="962.56" r="20.48"/>
  </g>
  <g id="Top_Left" data-name="Top Left">
    <polyline class="cls-1" points="271.36 459.78 204.8 393.22 131.07 393.22 81.92 344.06 81.92 253.95"/>
    <polyline class="cls-1" points="271.36 402.43 172.03 303.1 172.03 196.61 114.69 139.26"/>
    <polyline class="cls-1" points="271.36 345.09 212.99 286.72 212.99 196.61 262.14 147.46 262.14 81.92"/>
    <polyline class="cls-1" points="286.72 280.41 286.72 204.8 319.49 172.03 442.37 172.03 475.14 139.26"/>
    <circle class="cls-1" cx="81.92" cy="233.47" r="20.48"/>
    <circle class="cls-1" cx="262.14" cy="61.44" r="20.48"/>
    <circle class="cls-1" cx="491.52" cy="122.88" r="20.48"/>
    <circle class="cls-1" cx="98.3" cy="122.88" r="20.48"/>
  </g>
  <g id="Bottom_Left" data-name="Bottom Left">
    <polyline class="cls-1" points="283.39 740.61 253.95 770.05 147.46 770.05 90.11 712.7"/>
    <polyline class="cls-1" points="328.7 752.64 270.34 811.01 212.99 811.01 106.5 917.5"/>
    <polyline class="cls-1" points="271.36 695.3 237.57 729.09 188.42 729.09 155.65 696.32 155.65 606.21"/>
    <circle class="cls-1" cx="90.11" cy="933.89" r="20.48"/>
    <circle class="cls-1" cx="73.73" cy="696.32" r="20.48"/>
    <circle class="cls-1" cx="155.65" cy="585.73" r="20.48"/>
  </g>
</svg>